<?xml version="1.0" encoding="UTF-8" standalone="no"?>
<!-- Created with Inkscape (http://www.inkscape.org/) -->

<svg
   xmlns:dc="http://purl.org/dc/elements/1.1/"
   xmlns:cc="http://creativecommons.org/ns#"
   xmlns:rdf="http://www.w3.org/1999/02/22-rdf-syntax-ns#"
   xmlns:svg="http://www.w3.org/2000/svg"
   xmlns="http://www.w3.org/2000/svg"
   xmlns:sodipodi="http://sodipodi.sourceforge.net/DTD/sodipodi-0.dtd"
   xmlns:inkscape="http://www.inkscape.org/namespaces/inkscape"
   id="svg2"
   version="1.1"
   inkscape:version="0.92.3 (2405546, 2018-03-11)"
   width="512"
   height="513"
   sodipodi:docname="folder.svg">
  <metadata
     id="metadata8">
    <rdf:RDF>
      <cc:Work
         rdf:about="">
        <dc:format>image/svg+xml</dc:format>
        <dc:type
           rdf:resource="http://purl.org/dc/dcmitype/StillImage" />
        <dc:title></dc:title>
      </cc:Work>
    </rdf:RDF>
  </metadata>
  <defs
     id="defs6" />
  <sodipodi:namedview
     pagecolor="#ffffff"
     bordercolor="#666666"
     borderopacity="1"
     objecttolerance="10"
     gridtolerance="10"
     guidetolerance="10"
     inkscape:pageopacity="0"
     inkscape:pageshadow="2"
     inkscape:window-width="1416"
     inkscape:window-height="831"
     id="namedview4"
     showgrid="false"
     inkscape:zoom="0.65059337"
     inkscape:cx="13.85841"
     inkscape:cy="244.19443"
     inkscape:window-x="595"
     inkscape:window-y="383"
     inkscape:window-maximized="0"
     inkscape:current-layer="svg2"
     showguides="false" />
  <rect
     style="fill:#bb5912;fill-rule:evenodd;stroke:#000000;stroke-width:0;stroke-linecap:butt;stroke-linejoin:miter;stroke-opacity:0;stroke-miterlimit:4;stroke-dasharray:none;fill-opacity:1"
     id="rect2984"
     width="183.68008"
     height="44.56144"
     x="33.692795"
     y="71.733047" />
  <rect
     style="fill:#ef7e2c;fill-rule:evenodd;stroke:none;stroke-width:0;stroke-linecap:butt;stroke-linejoin:miter;stroke-opacity:1;stroke-miterlimit:4;stroke-dasharray:none;fill-opacity:1"
     id="rect2982"
     width="493.43646"
     height="326.0593"
     x="8.6949148"
     y="115.20763" />
  <path
     inkscape:connector-curvature="0"
     class="cls-1"
     d="m 234.7716,157.72906 c -0.26849,0.34118 -21.46159,23.32974 -27.80441,34.72334 -4.73757,8.50582 -8.24448,16.58643 -10.50271,24.1862 -2.02893,6.82808 -3.04992,13.26802 -3.04992,19.27953 0,42.05061 25.81879,58.8082 44.66829,71.0352 14.75518,9.58137 19.04526,13.37364 19.04526,20.04648 0,12.80311 -17.82593,31.22192 -46.59239,48.88005 l -0.2573,-16.98133 -55.2844,57.66157 80.69488,-0.29645 -13.89942,-13.01007 c 52.94081,-31.1604 64.55814,-58.37751 64.55814,-76.24259 0,-23.54229 -17.93778,-35.182 -32.35177,-44.53963 -16.83032,-10.92377 -31.36177,-20.3597 -31.36177,-46.54763 -0.0168,-15.87946 6.34283,-38.48208 31.23312,-61.13503"
     id="path8"
     style="fill:#58a5bf;fill-opacity:1;stroke-width:0.55933231"
     sodipodi:nodetypes="ccsscscccccsccc" />
  <path
     inkscape:connector-curvature="0"
     class="cls-2"
     d="m 287.22018,256.17714 c -15.38723,-10.62731 -22.12719,-16.03606 -22.12719,-23.55908 0,-14.06161 15.86827,-30.98142 44.12014,-47.54324 l 0.13983,17.17709 55.69273,-57.80699 -80.69488,0.30204 13.74839,13.03802 c -41.2955,23.30739 -62.21454,48.43819 -62.21454,74.8275 0,23.65416 18.45797,36.3566 34.76252,47.61037 20.58342,14.18466 33.0789,24.34773 33.00059,45.78693 -0.0838,23.40807 -8.1271,32.15602 -27.56389,53.29319 -2.43869,2.65124 -5.00043,5.44231 -7.69081,8.38998 l 21.66853,19.57665 c 2.62885,-2.90854 5.14026,-5.63808 7.52301,-8.22779 20.40445,-22.18872 35.14845,-38.22476 35.27151,-72.95371 0.1566,-38.3702 -26.3166,-56.59885 -45.63594,-69.91096 z"
     id="path10"
     style="fill:#f35927;fill-opacity:1;stroke-width:0.55933231" />
</svg>
