<svg id="Layer_1" data-name="Layer 1" xmlns="http://www.w3.org/2000/svg" viewBox="0 0 500 500"><defs><style>.cls-1{fill:#00aeef;}.cls-2{fill:#f15a29;}</style></defs><title>Artboard 1</title><path class="cls-1" d="M207.36,30.5c-.48.61-38.37,41.71-49.71,62.08-16.08,28.87-24.23,55-24.23,77.71,0,75.18,46.16,105.14,79.86,127,26.38,17.13,34.05,23.91,34.05,35.84,0,22.89-31.87,55.82-83.3,87.39l-.46-30.36L64.73,493.25,209,492.72l-24.85-23.26c94.65-55.71,115.42-104.37,115.42-136.31,0-42.09-32.07-62.9-57.84-79.63-30.09-19.53-56.07-36.4-56.07-83.22C185.63,141.91,197,101.5,241.5,61"/><path class="cls-2" d="M301.13,206.51c-27.51-19-39.56-28.67-39.56-42.12,0-25.14,28.37-55.39,78.88-85l.25,30.71L440.27,6.75,296,7.29,320.58,30.6c-73.83,41.67-111.23,86.6-111.23,133.78,0,42.29,33,65,62.15,85.12,36.8,25.36,59.14,43.53,59,81.86-.15,41.85-14.53,57.49-49.28,95.28-4.36,4.74-8.94,9.73-13.75,15l38.74,35c4.7-5.2,9.19-10.08,13.45-14.71,36.48-39.67,62.84-68.34,63.06-130.43C383,262.9,335.67,230.31,301.13,206.51Z"/></svg>