<?xml version="1.0" encoding="UTF-8" standalone="no"?>
<!-- Created with Inkscape (http://www.inkscape.org/) -->

<svg
   xmlns:dc="http://purl.org/dc/elements/1.1/"
   xmlns:cc="http://creativecommons.org/ns#"
   xmlns:rdf="http://www.w3.org/1999/02/22-rdf-syntax-ns#"
   xmlns:svg="http://www.w3.org/2000/svg"
   xmlns="http://www.w3.org/2000/svg"
   xmlns:sodipodi="http://sodipodi.sourceforge.net/DTD/sodipodi-0.dtd"
   xmlns:inkscape="http://www.inkscape.org/namespaces/inkscape"
   id="svg2"
   version="1.1"
   inkscape:version="0.92.3 (2405546, 2018-03-11)"
   width="512"
   height="513"
   sodipodi:docname="ss_folder_flat.svg">
  <metadata
     id="metadata8">
    <rdf:RDF>
      <cc:Work
         rdf:about="">
        <dc:format>image/svg+xml</dc:format>
        <dc:type
           rdf:resource="http://purl.org/dc/dcmitype/StillImage" />
        <dc:title></dc:title>
      </cc:Work>
    </rdf:RDF>
  </metadata>
  <defs
     id="defs6" />
  <sodipodi:namedview
     pagecolor="#ffffff"
     bordercolor="#666666"
     borderopacity="1"
     objecttolerance="10"
     gridtolerance="10"
     guidetolerance="10"
     inkscape:pageopacity="0"
     inkscape:pageshadow="2"
     inkscape:window-width="1416"
     inkscape:window-height="831"
     id="namedview4"
     showgrid="false"
     inkscape:zoom="0.65059337"
     inkscape:cx="-61.730404"
     inkscape:cy="244.19443"
     inkscape:window-x="1049"
     inkscape:window-y="333"
     inkscape:window-maximized="0"
     inkscape:current-layer="svg2"
     showguides="false" />
  <rect
     style="fill:#bb5912;fill-rule:evenodd;stroke:#000000;stroke-width:0;stroke-linecap:butt;stroke-linejoin:miter;stroke-opacity:0;stroke-miterlimit:4;stroke-dasharray:none;fill-opacity:1"
     id="rect2984"
     width="183.68008"
     height="44.56144"
     x="33.692795"
     y="71.733047" />
  <rect
     style="fill:#ef7e2c;fill-rule:evenodd;stroke:none;stroke-width:0;stroke-linecap:butt;stroke-linejoin:miter;stroke-opacity:1;stroke-miterlimit:4;stroke-dasharray:none;fill-opacity:1"
     id="rect2982"
     width="493.43646"
     height="326.0593"
     x="8.6949148"
     y="115.20763" />
  <path
     inkscape:connector-curvature="0"
     class="cls-1"
     d="m 254.30301,185.06798 c -0.19972,0.2538 -15.965,17.35469 -20.68333,25.83023 -3.52422,6.32737 -6.13296,12.33842 -7.81283,17.9918 -1.50929,5.07931 -2.26879,9.86989 -2.26879,14.34177 0,31.28089 19.20625,43.74664 33.22814,52.84214 10.97618,7.12746 14.16751,9.94848 14.16751,14.91231 0,9.52406 -13.26047,23.22557 -34.65945,36.36121 l -0.1914,-12.63218 -41.12533,42.89367 60.02785,-0.22053 -10.33959,-9.67801 c 39.38195,-23.1798 48.02393,-43.42625 48.02393,-56.71584 0,-17.5128 -13.34368,-26.17142 -24.06605,-33.13244 -12.51985,-8.12605 -23.3296,-15.14531 -23.3296,-34.62615 -0.0125,-11.81252 4.71834,-28.62631 23.2339,-45.47753"
     id="path8"
     style="fill:#9f5722;fill-opacity:1;stroke-width:0.41607982"
     sodipodi:nodetypes="ccsscscccccsccc" />
  <path
     inkscape:connector-curvature="0"
     class="cls-2"
     d="m 293.3188,258.30219 c -11.44635,-7.90551 -16.46011,-11.929 -16.46011,-17.52529 0,-10.46023 11.80419,-23.04665 32.82037,-35.36677 l 0.10402,12.77781 41.42908,-43.00185 -60.02784,0.22469 10.22724,9.6988 c -30.71917,17.33805 -46.28056,36.03252 -46.28056,55.66318 0,17.59601 13.73063,27.04518 25.85937,35.41672 15.31173,10.55177 24.60695,18.11195 24.54869,34.06028 -0.0624,17.41295 -6.04563,23.92043 -20.5044,39.64409 -1.81411,1.97223 -3.71975,4.04846 -5.72109,6.2412 l 16.11893,14.5628 c 1.95556,-2.16362 3.82377,-4.19409 5.59627,-6.12054 15.1786,-16.50589 26.14645,-28.43489 26.238,-54.26929 0.11649,-28.54308 -19.57656,-42.10313 -33.94797,-52.00583 z"
     id="path10"
     style="fill:#9f5722;fill-opacity:1;stroke-width:0.41607982" />
</svg>
